# xmcd CD database file
#
# Track frame offsets:
#	150
#	22222
#	37715
#	54007
#	68960
#	77720
#	93510
#	109205
#	132962
#	144920
#
# Disc length: 2233 seconds
#
# Revision: 1
# Processed by: cddbd v1.5.1PL0 Copyright (c) Steve Scherf et al.
# Submitted via: jetAudio 5
#
DISCID=7d08b70a
DTITLE=B.B. King - Dueling Blues [CD1]
DYEAR=1900
DGENRE=
TTITLE0=The Thrill Is Gone
TTITLE1=How Blue Can You Get
TTITLE2=It"S My Own Fault
TTITLE3=B. B. Boogie
TTITLE4=A New Way Of Driving
TTITLE5=The Letter
TTITLE6=Walkin' And Cryin'
TTITLE7=You've Done Lost Your Good Thing Now
TTITLE8=Paying The Cost To Be The Boss
TTITLE9=Everyday I Have The Blues
EXTD=
EXTT0=
EXTT1=
EXTT2=
EXTT3=
EXTT4=
EXTT5=
EXTT6=
EXTT7=
EXTT8=
EXTT9=
PLAYORDER=
